<svg width="96" height="47" viewBox="0 0 96 47" fill="none" xmlns="http://www.w3.org/2000/svg">
<g clip-path="url(#clip0_440_607)">
<path d="M6.92524 24.8247C6.22392 10.3554 18.0464 0 30.2047 0C43.0468 0 60.887 13.0274 60.887 13.0274C65.5683 15.1283 70.5031 19.0199 73.6293 20.8572C74.1742 21.1768 74.0204 22.0994 73.3461 21.885C72.7028 21.68 68.9036 19.7176 68.3412 19.6191C68.2238 19.5991 67.9002 19.9106 68.1079 20.1569C69.1679 21.4164 73.3016 24.4586 74.6327 25.8778C75.1196 26.3957 74.5451 27.2119 73.7669 26.7126C72.603 25.9657 68.3007 22.5321 67.6898 22.2778C67.3904 22.1527 67.068 22.4376 67.2906 22.6719L73.3515 28.8867C73.9193 29.607 73.1586 30.4963 72.3211 29.6669L66.0188 23.8169C65.7693 23.6118 65.4253 23.9207 65.6088 24.1857L70.0918 30.8132C70.4384 31.3924 69.6561 31.9808 69.1827 31.4962L60.9882 22.4802C60.5364 22.0235 59.7515 22.343 59.7569 22.9808C59.7717 24.886 59.9659 28.6644 58.8222 29.2568C58.6523 29.3447 58.4473 29.2156 58.4392 29.0252C58.4014 28.0054 58.183 24.7195 56.9435 23.0886C55.4654 21.1435 56.1991 17.7245 56.1991 17.7245C56.1991 17.7245 39.3042 5.64367 29.2498 6.44915C19.039 7.26794 12.7164 14.9233 13.1332 24.4999C13.5742 34.6143 26.0602 45.6726 40.5288 37.1665L46.8878 40.8917C46.8878 40.8917 38.4613 47.4367 27.7515 46.4209C20.0546 45.6913 7.56586 38.1104 6.92254 24.8247H6.92524Z" fill="white"/>
<path d="M65.7969 47.0005C59.7629 47.0005 52.6231 44.1247 46.7523 41.0745C44.3179 39.8097 42.1021 38.517 40.2719 37.3867C37.1214 35.4375 35.1146 33.973 35.1146 33.973C30.4333 31.8721 25.4985 27.9805 22.3709 26.1432C21.8274 25.8237 21.9812 24.9011 22.6542 25.1154C23.2975 25.3218 27.0967 27.2829 27.6591 27.3814C27.7764 27.4014 28.1001 27.0898 27.8924 26.8435C26.8324 25.5841 22.6987 22.5419 21.3675 21.1226C20.882 20.6047 21.4552 19.7886 22.2334 20.2879C23.3973 21.0348 27.6996 24.467 28.3105 24.7227C28.6099 24.8478 28.9322 24.5616 28.7097 24.3286L22.6474 18.1138C22.081 17.3935 22.8416 16.5055 23.6792 17.3336L29.9802 23.1836C30.231 23.3886 30.5736 23.0798 30.3902 22.8148L25.9072 16.1873C25.5606 15.6081 26.3428 15.0196 26.8162 15.5043L34.6223 24.2966C34.6223 24.2966 35.2697 24.8345 35.5556 24.7067C35.8402 24.5789 36.0735 23.9638 36.0735 23.9638C36.0735 23.9638 35.3047 18.183 37.2158 17.697C37.3844 17.6544 37.5516 17.7716 37.5584 17.9433C37.5934 18.9246 37.8025 22.2636 39.0554 23.9132C40.5335 25.8583 39.7999 29.276 39.7999 29.276C39.7999 29.276 56.6947 41.3581 66.7504 40.5513C76.9612 39.7325 83.2838 32.0772 82.8657 22.5006C82.4274 12.4608 70.1208 1.49027 55.7857 9.65157C53.9556 8.52123 51.7397 7.22847 49.3053 5.96367C50.6203 5.01041 58.4858 -0.345688 68.2475 0.579614C75.9443 1.3092 88.4331 8.89002 89.0764 22.1758C89.7764 36.6464 77.9552 47.0005 65.7969 47.0005Z" fill="white"/>
<path d="M3.53218 25.3011C3.70211 28.8106 4.56122 31.8541 5.77907 34.4596C5.94361 34.8111 5.68062 35.2118 5.28815 35.2118H1.82071C0.815948 35.2118 0 34.4902 0 33.6022V13.3987C0 12.5093 0.815948 11.7891 1.82071 11.7891H5.4945C5.88831 11.7891 6.14726 12.1911 5.98272 12.5453C4.16606 16.4608 3.31369 20.8051 3.53218 25.3011Z" fill="white"/>
<path d="M96.0004 13.3974V33.6022C96.0004 34.4902 95.1845 35.2118 94.1784 35.2118H91.0076C90.6192 35.2118 90.3603 34.8204 90.5127 34.4676C92.1392 30.7131 92.8944 26.5859 92.6881 22.3215C92.506 18.5351 91.5188 15.2906 90.1459 12.5546C89.9692 12.2018 90.2322 11.7891 90.6314 11.7891H94.1797C95.1858 11.7891 96.0018 12.5093 96.0018 13.3974H96.0004Z" fill="white"/>
</g>
<defs>
<clipPath id="clip0_440_607">
<rect width="96" height="47" fill="white"/>
</clipPath>
</defs>
</svg>
