<svg width="100" height="50" viewBox="0 0 100 50" fill="none" xmlns="http://www.w3.org/2000/svg">
<g clip-path="url(#clip0_428_1985)">
<path d="M7.21358 26.4093C6.48305 11.0164 18.7981 0 31.463 0C44.8402 0 63.4238 13.859 63.4238 13.859C68.3001 16.094 73.4405 20.234 76.697 22.1885C77.2646 22.5285 77.1044 23.51 76.402 23.282C75.7319 23.0639 71.7744 20.9762 71.1885 20.8713C71.0663 20.8501 70.7291 21.1815 70.9455 21.4435C72.0497 22.7834 76.3556 26.0198 77.7422 27.5296C78.2494 28.0806 77.6509 28.9488 76.8403 28.4177C75.6279 27.6231 71.1464 23.9703 70.51 23.6998C70.1981 23.5667 69.8623 23.8698 70.0941 24.119L76.4076 30.7306C76.9991 31.4968 76.2067 32.4429 75.3343 31.5605L68.7693 25.3371C68.5094 25.119 68.1512 25.4476 68.3423 25.7294L73.0121 32.78C73.3731 33.3961 72.5583 34.0222 72.0652 33.5066L63.5292 23.9151C63.0585 23.4293 62.2409 23.7692 62.2465 24.4476C62.262 26.4744 62.4643 30.494 61.273 31.1243C61.0959 31.2178 60.8824 31.0804 60.874 30.8779C60.8346 29.7929 60.6071 26.2974 59.316 24.5623C57.7762 22.4931 58.5405 18.8559 58.5405 18.8559C58.5405 18.8559 40.9417 6.00391 30.4684 6.8608C19.8321 7.73186 13.2461 15.8759 13.6802 26.0637C14.1396 36.8237 27.1459 48.5879 42.2173 39.5388L48.8413 43.5018C48.8413 43.5018 40.0636 50.4646 28.9076 49.3839C20.89 48.6077 7.8809 40.543 7.21077 26.4093H7.21358Z" fill="#DC1F29"/>
<path d="M68.5384 49.9996C62.253 49.9996 54.8157 46.9403 48.7003 43.6955C46.1645 42.3499 43.8563 40.9746 41.9499 39.7722C38.6681 37.6986 36.5776 36.1406 36.5776 36.1406C31.7013 33.9056 26.5609 29.7656 23.303 27.8111C22.7369 27.4712 22.897 26.4896 23.598 26.7177C24.2682 26.9372 28.2257 29.0235 28.8115 29.1283C28.9337 29.1495 29.2709 28.8181 29.0546 28.5561C27.9503 27.2162 23.6444 23.9799 22.2578 22.47C21.7521 21.9191 22.3491 21.0508 23.1597 21.582C24.3721 22.3765 28.8537 26.0279 29.4901 26.2998C29.802 26.433 30.1377 26.1285 29.9059 25.8806L23.591 19.2691C23.001 18.5028 23.7933 17.5581 24.6658 18.4391L31.2293 24.6625C31.4906 24.8807 31.8474 24.5521 31.6564 24.2702L26.9866 17.2196C26.6255 16.6035 27.4404 15.9775 27.9335 16.493L36.0649 25.8466C36.0649 25.8466 36.7392 26.4188 37.037 26.2828C37.3335 26.1469 37.5765 25.4925 37.5765 25.4925C37.5765 25.4925 36.7757 19.3427 38.7664 18.8258C38.942 18.7804 39.1162 18.9051 39.1233 19.0878C39.1598 20.1316 39.3775 23.6838 40.6827 25.4387C42.2224 27.508 41.4582 31.1438 41.4582 31.1438C41.4582 31.1438 59.057 43.9971 69.5317 43.1388C80.1679 42.2678 86.754 34.1238 86.3184 23.9359C85.8619 13.2552 73.0424 1.58452 58.1101 10.2668C56.2037 9.06427 53.8955 7.68899 51.3597 6.34346C52.7294 5.32935 60.9226 -0.368626 71.0911 0.615738C79.1087 1.3919 92.1177 9.4566 92.7879 23.5904C93.517 38.9847 81.2033 49.9996 68.5384 49.9996Z" fill="#273043"/>
<path d="M3.67935 26.9165C3.85637 30.65 4.75127 33.8878 6.01987 36.6596C6.19126 37.0335 5.91731 37.4598 5.50849 37.4598H1.89657C0.849946 37.4598 0 36.6922 0 35.7475V14.2544C0 13.3082 0.849946 12.542 1.89657 12.542H5.72344C6.13366 12.542 6.40339 12.9697 6.232 13.3465C4.33964 17.512 3.45176 22.1335 3.67935 26.9165Z" fill="#DC1F29"/>
<path d="M99.9996 14.2529V35.7475C99.9996 36.6922 99.1497 37.4598 98.1017 37.4598H94.7988C94.3942 37.4598 94.1245 37.0434 94.2832 36.6681C95.9775 32.674 96.7642 28.2833 96.5493 23.7467C96.3596 19.7186 95.3313 16.267 93.9011 13.3564C93.7171 12.9811 93.991 12.542 94.4069 12.542H98.1031C99.1511 12.542 100.001 13.3082 100.001 14.2529H99.9996Z" fill="#273043"/>
</g>
<defs>
<clipPath id="clip0_428_1985">
<rect width="100" height="50" fill="white"/>
</clipPath>
</defs>
</svg>
